<?xml version="1.0" encoding="UTF-8" standalone="no"?>
<svg width="221px" height="31px" viewBox="0 0 221 31" version="1.1" xmlns="http://www.w3.org/2000/svg" xmlns:xlink="http://www.w3.org/1999/xlink">
    <!-- Generator: Sketch 50.2 (55047) - http://www.bohemiancoding.com/sketch -->
    <title>Group</title>
    <desc>Created with Sketch.</desc>
    <defs></defs>
    <g id="Page-1" stroke="none" stroke-width="1" fill="none" fill-rule="evenodd">
        <g id="Group">
            <path d="M34.2116665,13 L34.6516665,29 L25.7716665,29 L25.7716665,0.68 L38.2116665,0.68 L43.3316665,15.92 L43.5316665,15.92 L47.9716665,0.68 L60.8116665,0.68 L60.8116665,29 L51.5716665,29 L51.8516665,13.08 L51.6116665,13.04 L46.3316665,29 L39.6116665,29 L34.4116665,13 L34.2116665,13 Z M84.6516665,18.96 C84.6516665,20.5866748 84.3583361,22.0599934 83.7716665,23.38 C83.1849969,24.7000066 82.3850049,25.8199954 81.3716665,26.74 C80.3583281,27.6600046 79.1850065,28.3733308 77.8516665,28.88 C76.5183265,29.3866692 75.0916741,29.64 73.5716665,29.64 C72.0783257,29.64 70.6583399,29.3866692 69.3116665,28.88 C67.9649931,28.3733308 66.7916715,27.6600046 65.7916665,26.74 C64.7916615,25.8199954 63.9983361,24.7000066 63.4116665,23.38 C62.8249969,22.0599934 62.5316665,20.5866748 62.5316665,18.96 C62.5316665,17.3333252 62.8249969,15.8666732 63.4116665,14.56 C63.9983361,13.2533268 64.7916615,12.1466712 65.7916665,11.24 C66.7916715,10.3333288 67.9649931,9.6400024 69.3116665,9.16 C70.6583399,8.6799976 72.0783257,8.44 73.5716665,8.44 C75.0916741,8.44 76.5183265,8.6799976 77.8516665,9.16 C79.1850065,9.6400024 80.3583281,10.3333288 81.3716665,11.24 C82.3850049,12.1466712 83.1849969,13.2533268 83.7716665,14.56 C84.3583361,15.8666732 84.6516665,17.3333252 84.6516665,18.96 Z M78.3316665,18.96 C78.3316665,18.3199968 78.2250009,17.6933364 78.0116665,17.08 C77.7983321,16.4666636 77.4916685,15.926669 77.0916665,15.46 C76.6916645,14.993331 76.1983361,14.6133348 75.6116665,14.32 C75.0249969,14.0266652 74.3450037,13.88 73.5716665,13.88 C72.7983293,13.88 72.1183361,14.0266652 71.5316665,14.32 C70.9449969,14.6133348 70.4583351,14.993331 70.0716665,15.46 C69.6849979,15.926669 69.3916675,16.4666636 69.1916665,17.08 C68.9916655,17.6933364 68.8916665,18.3199968 68.8916665,18.96 C68.8916665,19.6000032 68.9916655,20.2266636 69.1916665,20.84 C69.3916675,21.4533364 69.6916645,22.0066642 70.0916665,22.5 C70.4916685,22.9933358 70.9849969,23.3866652 71.5716665,23.68 C72.1583361,23.9733348 72.8383293,24.12 73.6116665,24.12 C74.3850037,24.12 75.0649969,23.9733348 75.6516665,23.68 C76.2383361,23.3866652 76.7316645,22.9933358 77.1316665,22.5 C77.5316685,22.0066642 77.8316655,21.4533364 78.0316665,20.84 C78.2316675,20.2266636 78.3316665,19.6000032 78.3316665,18.96 Z M111.771667,29 L111.771667,18.12 C111.771667,17.5599972 111.731667,17.0200026 111.651667,16.5 C111.571666,15.9799974 111.425001,15.5333352 111.211667,15.16 C110.998332,14.7866648 110.711668,14.4866678 110.351667,14.26 C109.991665,14.0333322 109.518336,13.92 108.931667,13.92 C108.371664,13.92 107.885002,14.0399988 107.471667,14.28 C107.058331,14.5200012 106.711668,14.839998 106.431667,15.24 C106.151665,15.640002 105.945001,16.0999974 105.811667,16.62 C105.678333,17.1400026 105.611667,17.6799972 105.611667,18.24 L105.611667,29 L99.0516666,29 L99.0516666,17.64 C99.0516666,16.4933276 98.8250022,15.58667 98.3716666,14.92 C97.918331,14.25333 97.1983382,13.92 96.2116666,13.92 C95.1716614,13.92 94.3650028,14.3333292 93.7916666,15.16 C93.2183304,15.9866708 92.9316666,16.999994 92.9316666,18.2 L92.9316666,29 L86.3316666,29 L86.3316666,9.08 L92.6916666,9.08 L92.6916666,11.84 L92.7716666,11.84 C93.0116678,11.4133312 93.3116648,11.000002 93.6716666,10.6 C94.0316684,10.199998 94.4649974,9.8466682 94.9716666,9.54 C95.4783358,9.2333318 96.0449968,8.9866676 96.6716666,8.8 C97.2983364,8.6133324 97.9849962,8.52 98.7316666,8.52 C100.171674,8.52 101.391662,8.8133304 102.391667,9.4 C103.391672,9.9866696 104.171664,10.8266612 104.731667,11.92 C105.398337,10.8799948 106.251661,10.0533364 107.291667,9.44 C108.331672,8.8266636 109.598326,8.52 111.091667,8.52 C112.451673,8.52 113.591662,8.7666642 114.511667,9.26 C115.431671,9.7533358 116.171664,10.3933294 116.731667,11.18 C117.291669,11.9666706 117.698332,12.8466618 117.951667,13.82 C118.205001,14.7933382 118.331667,15.746662 118.331667,16.68 L118.331667,29 L111.771667,29 Z M134.651667,17.48 C134.651667,16.8666636 134.565001,16.2800028 134.391667,15.72 C134.218332,15.1599972 133.945002,14.6666688 133.571667,14.24 C133.198331,13.8133312 132.725003,13.4733346 132.151667,13.22 C131.57833,12.9666654 130.905004,12.84 130.131667,12.84 C128.691659,12.84 127.471672,13.273329 126.471667,14.14 C125.471662,15.006671 124.918334,16.1199932 124.811667,17.48 L134.651667,17.48 Z M139.451667,19.64 L139.451667,20.28 C139.451667,20.4933344 139.438333,20.7066656 139.411667,20.92 L124.811667,20.92 C124.865,21.6133368 125.044998,22.2466638 125.351667,22.82 C125.658335,23.3933362 126.064997,23.8866646 126.571667,24.3 C127.078336,24.7133354 127.651663,25.0399988 128.291667,25.28 C128.93167,25.5200012 129.59833,25.64 130.291667,25.64 C131.491673,25.64 132.504996,25.4200022 133.331667,24.98 C134.158337,24.5399978 134.838331,23.9333372 135.371667,23.16 L138.571667,25.72 C136.678324,28.2800128 133.931685,29.56 130.331667,29.56 C128.838326,29.56 127.465006,29.326669 126.211667,28.86 C124.958327,28.393331 123.871671,27.7333376 122.951667,26.88 C122.031662,26.0266624 121.311669,24.9800062 120.791667,23.74 C120.271664,22.4999938 120.011667,21.0933412 120.011667,19.52 C120.011667,17.9733256 120.271664,16.566673 120.791667,15.3 C121.311669,14.033327 122.024995,12.9533378 122.931667,12.06 C123.838338,11.1666622 124.91166,10.4733358 126.151667,9.98 C127.391673,9.4866642 128.731659,9.24 130.171667,9.24 C131.505007,9.24 132.738328,9.4599978 133.871667,9.9 C135.005006,10.3400022 135.984996,10.993329 136.811667,11.86 C137.638337,12.726671 138.284998,13.8066602 138.751667,15.1 C139.218336,16.3933398 139.451667,17.906658 139.451667,19.64 Z M144.821667,10.04 C144.875,10.5200024 144.915,11.059997 144.941667,11.66 C144.968333,12.260003 144.981667,12.759998 144.981667,13.16 L145.101667,13.16 C145.341668,12.6533308 145.668331,12.1800022 146.081667,11.74 C146.495002,11.2999978 146.968331,10.913335 147.501667,10.58 C148.035003,10.246665 148.621663,9.9866676 149.261667,9.8 C149.90167,9.6133324 150.56833,9.52 151.261667,9.52 C152.488339,9.52 153.541662,9.7266646 154.421667,10.14 C155.301671,10.5533354 156.034997,11.1066632 156.621667,11.8 C157.208336,12.4933368 157.641665,13.306662 157.921667,14.24 C158.201668,15.173338 158.341667,16.173328 158.341667,17.24 L158.341667,29 L154.581667,29 L154.581667,18.48 C154.581667,17.7066628 154.521667,16.9733368 154.401667,16.28 C154.281666,15.5866632 154.061668,14.973336 153.741667,14.44 C153.421665,13.906664 152.981669,13.4800016 152.421667,13.16 C151.861664,12.8399984 151.141671,12.68 150.261667,12.68 C148.768326,12.68 147.548338,13.246661 146.601667,14.38 C145.654995,15.513339 145.181667,17.0266572 145.181667,18.92 L145.181667,29 L141.421667,29 L141.421667,14.12 C141.421667,13.6133308 141.408333,12.960004 141.381667,12.16 C141.355,11.359996 141.315,10.6533364 141.261667,10.04 L144.821667,10.04 Z M171.021667,12.56 L165.741667,12.56 L165.741667,23.48 C165.741667,24.1733368 165.808333,24.7466644 165.941667,25.2 C166.075001,25.6533356 166.268332,26.0066654 166.521667,26.26 C166.775001,26.5133346 167.074998,26.6866662 167.421667,26.78 C167.768335,26.8733338 168.141665,26.92 168.541667,26.92 C168.915002,26.92 169.308331,26.8666672 169.721667,26.76 C170.135002,26.6533328 170.528332,26.5066676 170.901667,26.32 L171.021667,28.68 C170.541664,28.8666676 170.041669,29.0066662 169.521667,29.1 C169.001664,29.1933338 168.435003,29.24 167.821667,29.24 C167.314998,29.24 166.78167,29.173334 166.221667,29.04 C165.661664,28.906666 165.141669,28.6533352 164.661667,28.28 C164.181664,27.9066648 163.788335,27.4000032 163.481667,26.76 C163.174999,26.1199968 163.021667,25.2800052 163.021667,24.24 L163.021667,12.56 L159.141667,12.56 L159.141667,10.28 L163.021667,10.28 L163.021667,5 L165.741667,5 L165.741667,10.28 L171.021667,10.28 L171.021667,12.56 Z M186.931667,29 C186.878333,28.4933308 186.838334,27.9333364 186.811667,27.32 C186.785,26.7066636 186.771667,26.200002 186.771667,25.8 L186.691667,25.8 C186.158331,26.8933388 185.291673,27.7799966 184.091667,28.46 C182.891661,29.1400034 181.625007,29.48 180.291667,29.48 C177.918322,29.48 176.138339,28.7733404 174.951667,27.36 C173.764994,25.9466596 173.171667,24.0800116 173.171667,21.76 L173.171667,10.28 L175.891667,10.28 L175.891667,20.64 C175.891667,21.6266716 175.971666,22.519996 176.131667,23.32 C176.291668,24.120004 176.564998,24.8066638 176.951667,25.38 C177.338335,25.9533362 177.85833,26.3999984 178.511667,26.72 C179.165003,27.0400016 179.984995,27.2 180.971667,27.2 C181.69167,27.2 182.391663,27.0533348 183.071667,26.76 C183.75167,26.4666652 184.358331,26.020003 184.891667,25.42 C185.425003,24.819997 185.851665,24.0600046 186.171667,23.14 C186.491668,22.2199954 186.651667,21.1333396 186.651667,19.88 L186.651667,10.28 L189.371667,10.28 L189.371667,24.88 C189.371667,25.3866692 189.385,26.039996 189.411667,26.84 C189.438334,27.640004 189.478333,28.3599968 189.531667,29 L186.931667,29 Z M207.001667,15.68 C207.535003,13.8666576 208.44166,12.4733382 209.721667,11.5 C211.001673,10.5266618 212.454992,10.04 214.081667,10.04 C215.30834,10.04 216.341663,10.2666644 217.181667,10.72 C218.021671,11.1733356 218.688331,11.7733296 219.181667,12.52 C219.675003,13.2666704 220.028332,14.106662 220.241667,15.04 C220.455001,15.973338 220.561667,16.9199952 220.561667,17.88 L220.561667,29 L219.681667,29 L219.681667,17.96 C219.681667,17.2133296 219.595001,16.4133376 219.421667,15.56 C219.248333,14.7066624 218.948336,13.9333368 218.521667,13.24 C218.094998,12.5466632 217.52167,11.966669 216.801667,11.5 C216.081663,11.033331 215.175006,10.8 214.081667,10.8 C213.121662,10.8 212.221671,11.0066646 211.381667,11.42 C210.541663,11.8333354 209.808337,12.4266628 209.181667,13.2 C208.554997,13.9733372 208.055002,14.9133278 207.681667,16.02 C207.308332,17.1266722 207.121667,18.3866596 207.121667,19.8 L207.121667,29 L206.241667,29 L206.241667,17.96 C206.241667,17.2133296 206.168334,16.4133376 206.021667,15.56 C205.874999,14.7066624 205.601669,13.9333368 205.201667,13.24 C204.801665,12.5466632 204.248337,11.966669 203.541667,11.5 C202.834997,11.033331 201.935006,10.8 200.841667,10.8 C199.881662,10.8 198.981671,11.0066646 198.141667,11.42 C197.301663,11.8333354 196.568337,12.4266628 195.941667,13.2 C195.314997,13.9733372 194.821669,14.9133278 194.461667,16.02 C194.101665,17.1266722 193.921667,18.3866596 193.921667,19.8 L193.921667,29 L193.041667,29 L193.041667,15.24 C193.041667,14.9466652 193.035,14.5866688 193.021667,14.16 C193.008333,13.7333312 192.995,13.3000022 192.981667,12.86 C192.968333,12.4199978 192.948334,12.000002 192.921667,11.6 C192.895,11.199998 192.868334,10.866668 192.841667,10.6 L193.721667,10.6 C193.748334,10.866668 193.768333,11.199998 193.781667,11.6 C193.795,12.000002 193.808333,12.433331 193.821667,12.9 C193.835,13.366669 193.848333,13.8199978 193.861667,14.26 C193.875,14.7000022 193.881667,15.0933316 193.881667,15.44 L193.961667,15.44 C194.228335,14.5866624 194.601664,13.82667 195.081667,13.16 C195.561669,12.49333 196.101664,11.926669 196.701667,11.46 C197.30167,10.993331 197.954997,10.6400012 198.661667,10.4 C199.368337,10.1599988 200.094996,10.04 200.841667,10.04 C201.801672,10.04 202.634997,10.1866652 203.341667,10.48 C204.048337,10.7733348 204.641664,11.1733308 205.121667,11.68 C205.601669,12.1866692 205.988332,12.7799966 206.281667,13.46 C206.575002,14.1400034 206.788333,14.879996 206.921667,15.68 L207.001667,15.68 Z" id="Momentum" fill="#5C6C81"></path>
            <polygon id="keyboard-arrow-right---MaterialIcons-Regular" fill="#C84EFC" points="0.8403125 26.8984375 12.3246875 15.4140625 0.8403125 3.9296875 4.3559375 0.4140625 19.3559375 15.4140625 4.3559375 30.4140625"></polygon>
        </g>
    </g>
</svg>